<svg xmlns="http://www.w3.org/2000/svg" version="1.1" xmlns:xlink="http://www.w3.org/1999/xlink" xmlns:svgjs="http://svgjs.com/svgjs" width="1440" height="720" preserveAspectRatio="none" viewBox="0 0 1440 720"><g mask="url(&quot;#SvgjsMask1616&quot;)" fill="none"><rect width="1440" height="720" x="0" y="0" fill="url(#SvgjsRadialGradient1617)"></rect><path d="M65 720L785 0L1031 0L311 720z" fill="url(#SvgjsLinearGradient1618)"></path><path d="M551.2 720L1271.2 0L1646.2 0L926.2 720z" fill="url(#SvgjsLinearGradient1618)"></path><path d="M1371 720L651 0L36 0L756 720z" fill="url(#SvgjsLinearGradient1619)"></path><path d="M940.8 720L220.79999999999995 0L-472.20000000000005 0L247.79999999999995 720z" fill="url(#SvgjsLinearGradient1619)"></path><path d="M760.9734177950803 720L1440 40.97341779508031L1440 720z" fill="url(#SvgjsLinearGradient1618)"></path><path d="M0 720L679.0265822049197 720L 0 40.97341779508031z" fill="url(#SvgjsLinearGradient1619)"></path></g><defs><mask id="SvgjsMask1616"><rect width="1440" height="720" fill="#ffffff"></rect></mask><radialGradient cx="0%" cy="50%" r="1484.32" gradientUnits="userSpaceOnUse" id="SvgjsRadialGradient1617"><stop stop-color="rgba(14, 42, 71, 1)" offset="0"></stop><stop stop-color="rgba(78, 94, 114, 1)" offset="0.36"></stop></radialGradient><linearGradient x1="0%" y1="100%" x2="100%" y2="0%" id="SvgjsLinearGradient1618"><stop stop-color="rgba(62, 61, 82, 1)" offset="0"></stop><stop stop-opacity="0" stop-color="rgba(62, 61, 82, 1)" offset="0.66"></stop></linearGradient><linearGradient x1="100%" y1="100%" x2="0%" y2="0%" id="SvgjsLinearGradient1619"><stop stop-color="rgba(62, 61, 82, 1)" offset="0"></stop><stop stop-opacity="0" stop-color="rgba(62, 61, 82, 1)" offset="0.66"></stop></linearGradient></defs></svg>