<svg xmlns="http://www.w3.org/2000/svg" version="1.1" xmlns:xlink="http://www.w3.org/1999/xlink" xmlns:svgjs="http://svgjs.com/svgjs" width="2810" height="1020" preserveAspectRatio="none" viewBox="0 0 2810 1020"><g mask="url(&quot;#SvgjsMask1024&quot;)" fill="none"><rect width="2810" height="1020" x="0" y="0" fill="rgba(229, 59, 59, 1)"></rect><path d="M366 802L40 1128" stroke-width="10" stroke="url(#SvgjsLinearGradient1025)" stroke-linecap="round" class="BottomLeft"></path><path d="M1200 323L752 771" stroke-width="6" stroke="url(#SvgjsLinearGradient1025)" stroke-linecap="round" class="BottomLeft"></path><path d="M2629 579L3360 -152" stroke-width="8" stroke="url(#SvgjsLinearGradient1025)" stroke-linecap="round" class="BottomLeft"></path><path d="M2760 590L2497 853" stroke-width="10" stroke="url(#SvgjsLinearGradient1025)" stroke-linecap="round" class="BottomLeft"></path><path d="M697 818L1142 373" stroke-width="10" stroke="url(#SvgjsLinearGradient1025)" stroke-linecap="round" class="BottomLeft"></path><path d="M1736 787L1142 1381" stroke-width="6" stroke="url(#SvgjsLinearGradient1025)" stroke-linecap="round" class="BottomLeft"></path><path d="M1761 688L1211 1238" stroke-width="6" stroke="url(#SvgjsLinearGradient1025)" stroke-linecap="round" class="BottomLeft"></path><path d="M2605 979L2965 619" stroke-width="6" stroke="url(#SvgjsLinearGradient1026)" stroke-linecap="round" class="TopRight"></path><path d="M2473 825L1919 1379" stroke-width="8" stroke="url(#SvgjsLinearGradient1025)" stroke-linecap="round" class="BottomLeft"></path><path d="M2777 395L2117 1055" stroke-width="10" stroke="url(#SvgjsLinearGradient1026)" stroke-linecap="round" class="TopRight"></path><path d="M1316 1015L1788 543" stroke-width="8" stroke="url(#SvgjsLinearGradient1025)" stroke-linecap="round" class="BottomLeft"></path><path d="M501 109L179 431" stroke-width="6" stroke="url(#SvgjsLinearGradient1025)" stroke-linecap="round" class="BottomLeft"></path><path d="M2064 951L1390 1625" stroke-width="8" stroke="url(#SvgjsLinearGradient1025)" stroke-linecap="round" class="BottomLeft"></path><path d="M998 911L593 1316" stroke-width="8" stroke="url(#SvgjsLinearGradient1025)" stroke-linecap="round" class="BottomLeft"></path><path d="M1392 615L807 1200" stroke-width="6" stroke="url(#SvgjsLinearGradient1026)" stroke-linecap="round" class="TopRight"></path><path d="M1011 721L1669 63" stroke-width="6" stroke="url(#SvgjsLinearGradient1025)" stroke-linecap="round" class="BottomLeft"></path><path d="M1510 571L859 1222" stroke-width="6" stroke="url(#SvgjsLinearGradient1026)" stroke-linecap="round" class="TopRight"></path><path d="M1592 801L2156 237" stroke-width="6" stroke="url(#SvgjsLinearGradient1026)" stroke-linecap="round" class="TopRight"></path><path d="M1352 289L1908 -267" stroke-width="6" stroke="url(#SvgjsLinearGradient1025)" stroke-linecap="round" class="BottomLeft"></path><path d="M2151 281L2516 -84" stroke-width="6" stroke="url(#SvgjsLinearGradient1026)" stroke-linecap="round" class="TopRight"></path><path d="M1582 656L2013 225" stroke-width="10" stroke="url(#SvgjsLinearGradient1026)" stroke-linecap="round" class="TopRight"></path><path d="M8 755L-356 1119" stroke-width="8" stroke="url(#SvgjsLinearGradient1025)" stroke-linecap="round" class="BottomLeft"></path><path d="M2451 944L2172 1223" stroke-width="10" stroke="url(#SvgjsLinearGradient1026)" stroke-linecap="round" class="TopRight"></path><path d="M1177 724L1622 279" stroke-width="8" stroke="url(#SvgjsLinearGradient1026)" stroke-linecap="round" class="TopRight"></path><path d="M1085 413L489 1009" stroke-width="8" stroke="url(#SvgjsLinearGradient1026)" stroke-linecap="round" class="TopRight"></path><path d="M308 407L-384 1099" stroke-width="6" stroke="url(#SvgjsLinearGradient1026)" stroke-linecap="round" class="TopRight"></path><path d="M2507 327L2141 693" stroke-width="6" stroke="url(#SvgjsLinearGradient1026)" stroke-linecap="round" class="TopRight"></path><path d="M229 359L929 -341" stroke-width="10" stroke="url(#SvgjsLinearGradient1025)" stroke-linecap="round" class="BottomLeft"></path><path d="M1191 992L571 1612" stroke-width="6" stroke="url(#SvgjsLinearGradient1025)" stroke-linecap="round" class="BottomLeft"></path><path d="M1618 431L1938 111" stroke-width="10" stroke="url(#SvgjsLinearGradient1026)" stroke-linecap="round" class="TopRight"></path><path d="M262 795L-178 1235" stroke-width="8" stroke="url(#SvgjsLinearGradient1026)" stroke-linecap="round" class="TopRight"></path><path d="M1344 380L1784 -60" stroke-width="6" stroke="url(#SvgjsLinearGradient1025)" stroke-linecap="round" class="BottomLeft"></path><path d="M358 905L-124 1387" stroke-width="8" stroke="url(#SvgjsLinearGradient1025)" stroke-linecap="round" class="BottomLeft"></path><path d="M1867 401L2407 -139" stroke-width="10" stroke="url(#SvgjsLinearGradient1026)" stroke-linecap="round" class="TopRight"></path><path d="M2725 928L3490 163" stroke-width="6" stroke="url(#SvgjsLinearGradient1026)" stroke-linecap="round" class="TopRight"></path><path d="M2489 275L2056 708" stroke-width="10" stroke="url(#SvgjsLinearGradient1025)" stroke-linecap="round" class="BottomLeft"></path><path d="M2294 866L1927 1233" stroke-width="6" stroke="url(#SvgjsLinearGradient1026)" stroke-linecap="round" class="TopRight"></path><path d="M723 848L-2 1573" stroke-width="8" stroke="url(#SvgjsLinearGradient1025)" stroke-linecap="round" class="BottomLeft"></path><path d="M2747 252L2385 614" stroke-width="10" stroke="url(#SvgjsLinearGradient1026)" stroke-linecap="round" class="TopRight"></path><path d="M725 670L1234 161" stroke-width="6" stroke="url(#SvgjsLinearGradient1026)" stroke-linecap="round" class="TopRight"></path><path d="M1845 562L1246 1161" stroke-width="6" stroke="url(#SvgjsLinearGradient1026)" stroke-linecap="round" class="TopRight"></path><path d="M2264 554L2986 -168" stroke-width="8" stroke="url(#SvgjsLinearGradient1025)" stroke-linecap="round" class="BottomLeft"></path><path d="M883 245L452 676" stroke-width="8" stroke="url(#SvgjsLinearGradient1026)" stroke-linecap="round" class="TopRight"></path><path d="M2590 454L2970 74" stroke-width="10" stroke="url(#SvgjsLinearGradient1026)" stroke-linecap="round" class="TopRight"></path><path d="M69 733L-649 1451" stroke-width="8" stroke="url(#SvgjsLinearGradient1025)" stroke-linecap="round" class="BottomLeft"></path><path d="M2184 728L2581 331" stroke-width="6" stroke="url(#SvgjsLinearGradient1025)" stroke-linecap="round" class="BottomLeft"></path><path d="M966 95L1403 -342" stroke-width="6" stroke="url(#SvgjsLinearGradient1026)" stroke-linecap="round" class="TopRight"></path><path d="M2601 833L3094 340" stroke-width="8" stroke="url(#SvgjsLinearGradient1026)" stroke-linecap="round" class="TopRight"></path><path d="M2069 1010L1786 1293" stroke-width="6" stroke="url(#SvgjsLinearGradient1026)" stroke-linecap="round" class="TopRight"></path><path d="M760 91L412 439" stroke-width="8" stroke="url(#SvgjsLinearGradient1025)" stroke-linecap="round" class="BottomLeft"></path><path d="M412 960L1139 233" stroke-width="10" stroke="url(#SvgjsLinearGradient1026)" stroke-linecap="round" class="TopRight"></path><path d="M2083 586L2595 74" stroke-width="8" stroke="url(#SvgjsLinearGradient1025)" stroke-linecap="round" class="BottomLeft"></path><path d="M183 361L-239 783" stroke-width="6" stroke="url(#SvgjsLinearGradient1025)" stroke-linecap="round" class="BottomLeft"></path><path d="M244 948L-427 1619" stroke-width="10" stroke="url(#SvgjsLinearGradient1025)" stroke-linecap="round" class="BottomLeft"></path><path d="M1653 214L2155 -288" stroke-width="10" stroke="url(#SvgjsLinearGradient1026)" stroke-linecap="round" class="TopRight"></path><path d="M2333 591L2051 873" stroke-width="6" stroke="url(#SvgjsLinearGradient1026)" stroke-linecap="round" class="TopRight"></path><path d="M1699 433L1992 140" stroke-width="6" stroke="url(#SvgjsLinearGradient1026)" stroke-linecap="round" class="TopRight"></path><path d="M1522 284L1242 564" stroke-width="8" stroke="url(#SvgjsLinearGradient1026)" stroke-linecap="round" class="TopRight"></path><path d="M2138 12L1795 355" stroke-width="6" stroke="url(#SvgjsLinearGradient1026)" stroke-linecap="round" class="TopRight"></path><path d="M2751 271L3263 -241" stroke-width="10" stroke="url(#SvgjsLinearGradient1025)" stroke-linecap="round" class="BottomLeft"></path><path d="M1542 768L2259 51" stroke-width="6" stroke="url(#SvgjsLinearGradient1025)" stroke-linecap="round" class="BottomLeft"></path><path d="M1804 881L1121 1564" stroke-width="8" stroke="url(#SvgjsLinearGradient1025)" stroke-linecap="round" class="BottomLeft"></path><path d="M1288 903L905 1286" stroke-width="10" stroke="url(#SvgjsLinearGradient1026)" stroke-linecap="round" class="TopRight"></path><path d="M1753 972L1247 1478" stroke-width="8" stroke="url(#SvgjsLinearGradient1025)" stroke-linecap="round" class="BottomLeft"></path><path d="M346 887L-199 1432" stroke-width="10" stroke="url(#SvgjsLinearGradient1026)" stroke-linecap="round" class="TopRight"></path><path d="M2604 287L1977 914" stroke-width="6" stroke="url(#SvgjsLinearGradient1026)" stroke-linecap="round" class="TopRight"></path><path d="M946 62L322 686" stroke-width="10" stroke="url(#SvgjsLinearGradient1026)" stroke-linecap="round" class="TopRight"></path><path d="M1737 235L2243 -271" stroke-width="6" stroke="url(#SvgjsLinearGradient1026)" stroke-linecap="round" class="TopRight"></path><path d="M248 453L543 158" stroke-width="8" stroke="url(#SvgjsLinearGradient1025)" stroke-linecap="round" class="BottomLeft"></path><path d="M856 3L322 537" stroke-width="10" stroke="url(#SvgjsLinearGradient1025)" stroke-linecap="round" class="BottomLeft"></path><path d="M1901 22L1617 306" stroke-width="8" stroke="url(#SvgjsLinearGradient1026)" stroke-linecap="round" class="TopRight"></path><path d="M1969 798L2260 507" stroke-width="8" stroke="url(#SvgjsLinearGradient1025)" stroke-linecap="round" class="BottomLeft"></path><path d="M480 567L30 1017" stroke-width="6" stroke="url(#SvgjsLinearGradient1026)" stroke-linecap="round" class="TopRight"></path><path d="M1433 267L1134 566" stroke-width="6" stroke="url(#SvgjsLinearGradient1026)" stroke-linecap="round" class="TopRight"></path><path d="M1192 277L1886 -417" stroke-width="8" stroke="url(#SvgjsLinearGradient1026)" stroke-linecap="round" class="TopRight"></path></g><defs><mask id="SvgjsMask1024"><rect width="2810" height="1020" fill="#ffffff"></rect></mask><linearGradient x1="100%" y1="0%" x2="0%" y2="100%" id="SvgjsLinearGradient1025"><stop stop-color="rgba(89, 87, 87, 0)" offset="0"></stop><stop stop-color="rgba(89, 87, 87, 1)" offset="1"></stop></linearGradient><linearGradient x1="0%" y1="100%" x2="100%" y2="0%" id="SvgjsLinearGradient1026"><stop stop-color="rgba(89, 87, 87, 0)" offset="0"></stop><stop stop-color="rgba(89, 87, 87, 1)" offset="1"></stop></linearGradient></defs></svg>